<mxfile host="app.diagrams.net" modified="2024-04-10T08:32:44.194Z" agent="Mozilla/5.0 (X11; Linux x86_64) AppleWebKit/537.36 (KHTML, like Gecko) Chrome/123.0.0.0 Safari/537.36" version="24.2.1" etag="0-hY2zCUqPa4xjQ0ff2D" type="github">
  <diagram name="Page-1" id="xdGgLHDlegDxF5Aj0dBD">
    <mxGraphModel>
      <root>
        <mxCell id="0" />
        <mxCell id="1" parent="0" />
      </root>
    </mxGraphModel>
  </diagram>
</mxfile>
